<?xml version="1.0" encoding="utf-8"?>
<!-- Generator: Adobe Illustrator 15.0.0, SVG Export Plug-In  -->
<!DOCTYPE svg PUBLIC "-//W3C//DTD SVG 1.1//EN" "http://www.w3.org/Graphics/SVG/1.1/DTD/svg11.dtd" [
	<!ENTITY ns_flows "http://ns.adobe.com/Flows/1.0/">
]>
<svg version="1.1"
	 xmlns="http://www.w3.org/2000/svg" xmlns:xlink="http://www.w3.org/1999/xlink" xmlns:a="http://ns.adobe.com/AdobeSVGViewerExtensions/3.0/"
	 x="0px" y="0px" width="72px" height="72px" viewBox="0 0 72 72" overflow="visible" enable-background="new 0 0 72 72"
	 xml:space="preserve">
<defs>
</defs>
<path fill="none" d="M36.2,28.443c-2.331,2.946-4.978,5.366-7.756,7.357c2.946,2.331,5.366,4.978,7.357,7.756
	c2.331-2.945,4.978-5.366,7.756-7.357C40.611,33.869,38.19,31.222,36.2,28.443z"/>
<path d="M45,0c0,0-9,0-18,0C27,27,0,27,0,27v18c27,0,27,27,27,27s9,0,18,0c0-27,27-27,27-27s0-9,0-18C45,27,45,0,45,0z M35.8,43.557
	c-1.991-2.778-4.411-5.426-7.357-7.756c2.778-1.991,5.425-4.411,7.756-7.357c1.991,2.778,4.412,5.425,7.357,7.756
	C40.778,38.19,38.131,40.611,35.8,43.557z"/>
</svg>
